HIERARCHY
ROOT Hips
{
	OFFSET 0.000000 0.000000 0.000000
	CHANNELS 6 Xposition Yposition Zposition Zrotation Yrotation Xrotation 
	JOINT LHipJoint
	{
		OFFSET 0.000000 0.000000 0.000000
		CHANNELS 3 Zrotation Yrotation Xrotation
		JOINT LeftUpLeg
		{
			OFFSET 1.363060 -1.794630 0.839290
			CHANNELS 3 Zrotation Yrotation Xrotation
			JOINT LeftLeg
			{
				OFFSET 2.448110 -6.726130 0.000000
				CHANNELS 3 Zrotation Yrotation Xrotation
				JOINT LeftFoot
				{
					OFFSET 2.562200 -7.039590 0.000000
					CHANNELS 3 Zrotation Yrotation Xrotation
					JOINT LeftToeBase
					{
						OFFSET 0.157640 -0.433110 2.322550
						CHANNELS 3 Zrotation Yrotation Xrotation
						End Site
						{
							OFFSET 0.000000 0.000000 0.000000
						}
					}
				}
			}
		}
	}
	JOINT RHipJoint
	{
		OFFSET 0.000000 0.000000 0.000000
		CHANNELS 3 Zrotation Yrotation Xrotation
		JOINT RightUpLeg
		{
			OFFSET -1.305520 -1.794630 0.839290
			CHANNELS 3 Zrotation Yrotation Xrotation
			JOINT RightLeg
			{
				OFFSET -2.542530 -6.985550 0.000000
				CHANNELS 3 Zrotation Yrotation Xrotation
				JOINT RightFoot
				{
					OFFSET -2.568260 -7.056230 0.000000
					CHANNELS 3 Zrotation Yrotation Xrotation
					JOINT RightToeBase
					{
						OFFSET -0.164730 -0.452590 2.363150
						CHANNELS 3 Zrotation Yrotation Xrotation
						End Site
						{
							OFFSET 0.000000 0.000000 0.000000
						}
					}
				}
			}
		}
	}
	JOINT LowerBack
	{
		OFFSET 0.000000 0.000000 0.000000
		CHANNELS 3 Zrotation Yrotation Xrotation
		JOINT Spine
		{
			OFFSET 0.028270 2.035590 -0.193380
			CHANNELS 3 Zrotation Yrotation Xrotation
			JOINT Spine1
			{
				OFFSET 0.056720 2.048850 -0.042750
				CHANNELS 3 Zrotation Yrotation Xrotation
				JOINT Neck
				{
					OFFSET 0.000000 0.000000 0.000000
					CHANNELS 3 Zrotation Yrotation Xrotation
					JOINT Neck1
					{
						OFFSET -0.054170 1.746240 0.172020
						CHANNELS 3 Zrotation Yrotation Xrotation
						JOINT Head
						{
							OFFSET 0.104070 1.761360 -0.123970
							CHANNELS 3 Zrotation Yrotation Xrotation
							End Site
							{
								OFFSET 0.000000 0.000000 0.000000
							}
						}
					}
				}
				JOINT LeftShoulder
				{
					OFFSET 0.000000 0.000000 0.000000
					CHANNELS 3 Zrotation Yrotation Xrotation
					JOINT LeftArm
					{
						OFFSET 3.362410 1.200890 -0.311210
						CHANNELS 3 Zrotation Yrotation Xrotation
						JOINT LeftForeArm
						{
							OFFSET 4.983000 -0.000000 -0.000000
							CHANNELS 3 Zrotation Yrotation Xrotation
							JOINT LeftHand
							{
								OFFSET 3.483560 -0.000000 -0.000000
								CHANNELS 3 Zrotation Yrotation Xrotation
								JOINT LeftFingerBase
								{
									OFFSET 0.000000 0.000000 0.000000
									CHANNELS 3 Zrotation Yrotation Xrotation
									JOINT LeftHandIndex1
									{
										OFFSET 0.715260 -0.000000 -0.000000
										CHANNELS 3 Zrotation Yrotation Xrotation
										End Site
										{
											OFFSET 0.000000 0.000000 0.000000
										}
									}
								}
								JOINT LThumb
								{
									OFFSET 0.000000 0.000000 0.000000
									CHANNELS 3 Zrotation Yrotation Xrotation
									End Site
									{
										OFFSET 0.000000 0.000000 0.000000
									}
								}
							}
						}
					}
				}
				JOINT RightShoulder
				{
					OFFSET 0.000000 0.000000 0.000000
					CHANNELS 3 Zrotation Yrotation Xrotation
					JOINT RightArm
					{
						OFFSET -3.136600 1.374050 -0.404650
						CHANNELS 3 Zrotation Yrotation Xrotation
						JOINT RightForeArm
						{
							OFFSET -5.241900 -0.000000 -0.000000
							CHANNELS 3 Zrotation Yrotation Xrotation
							JOINT RightHand
							{
								OFFSET -3.444170 -0.000000 -0.000000
								CHANNELS 3 Zrotation Yrotation Xrotation
								JOINT RightFingerBase
								{
									OFFSET 0.000000 0.000000 0.000000
									CHANNELS 3 Zrotation Yrotation Xrotation
									JOINT RightHandIndex1
									{
										OFFSET -0.622530 -0.000000 -0.000000
										CHANNELS 3 Zrotation Yrotation Xrotation
										End Site
										{
											OFFSET 0.000000 0.000000 0.000000
										}
									}
								}
								JOINT RThumb
								{
									OFFSET 0.000000 0.000000 0.000000
									CHANNELS 3 Zrotation Yrotation Xrotation
									End Site
									{
										OFFSET 0.000000 0.000000 0.000000
									}
								}
							}
						}
					}
				}
			}
		}
	}
}
MOTION
Frames: 12
Frame Time: 0.008333
-3.579820 15.616927 -1.092810 -3.435383 82.250436 30.719149 -8.035190 -2.096551 -0.020648 -9.915397 -6.042559 -75.907815 -1.704724 3.584707 47.387953 0.965769 2.160293 -9.270257 0.098900 0.000000 -32.889600 10.634570 -0.651936 -6.931359 15.094845 -11.230165 -36.062023 1.364108 -4.856771 61.948362 0.561772 8.308640 -14.003191 -0.790000 0.000000 -66.075099 -2.770180 1.793380 10.695726 -1.255635 2.162455 -0.971933 -4.693850 2.190188 -0.933020 9.913819 -7.828659 -7.281470 -1.077113 -0.054508 -0.404614 0.000000 0.000000 0.000000 6.836727 17.818975 2.308919 -73.711025 36.241001 12.207876 -179.840801 -85.265003 -179.996590 -0.752631 2.828181 -0.018440 0.032547 0.113070 0.000000 0.000000 0.000000 0.000000 0.000000 0.000000 0.000000 2.185426 0.611722 -0.901258 64.249645 0.052454 6.717502 179.327914 70.050511 179.964480 -4.936430 0.848572 -0.056271 0.100867 -0.451730 0.000000 0.000000 0.000000 0.000000 0.000000 0.000000 0.000000 
-3.379572 15.557122 -1.069700 -5.592215 81.489481 28.061171 -8.097388 -2.234278 -0.197528 -9.295129 -5.566562 -75.801305 -1.386080 3.784621 50.129165 1.118817 2.956706 -9.716556 0.066400 -0.000000 -30.726300 10.774019 -0.677289 -6.859322 14.606461 -11.068014 -35.256014 1.121261 -4.885228 63.021405 0.628012 8.627366 -12.770731 -0.715201 -0.000000 -67.970799 -2.984632 1.834926 10.742240 -1.319276 2.211513 -0.985671 -4.801985 2.242970 -0.982636 10.008493 -7.771111 -7.288577 -1.101741 -0.056528 -0.401090 0.000000 0.000000 0.000000 6.697661 17.814368 2.311856 -73.576878 35.880624 12.119725 -179.840257 -85.289132 -179.996774 -0.701409 2.830529 -0.017224 0.030266 0.112920 0.000000 0.000000 0.000000 0.000000 0.000000 0.000000 0.000000 2.278935 0.741264 -0.898547 64.718594 -0.180647 6.965888 179.328972 70.039548 179.966583 -4.635903 0.974693 -0.058084 0.091181 -0.455401 -0.000000 0.000000 0.000000 0.000000 0.000000 0.000000 0.000000 
-3.180002 15.497919 -1.044031 -7.256912 80.655966 25.891257 -8.159956 -2.366012 -0.406200 -8.800311 -4.977754 -75.585636 -1.106699 3.979698 52.831860 1.274653 3.753783 -10.382269 0.000800 -0.000001 -28.612701 10.918558 -0.694753 -6.751456 14.082411 -10.764045 -34.540263 0.843155 -4.917889 64.212530 0.683519 8.906964 -11.295310 -0.585600 -0.000000 -69.720500 -3.230645 1.874962 10.783069 -1.392184 2.259345 -1.003874 -4.924381 2.294641 -1.041324 10.111652 -7.685404 -7.286743 -1.138624 -0.059602 -0.395499 0.000000 0.000000 0.000000 6.491847 17.789402 2.314570 -73.376252 35.397990 12.015690 -179.840430 -85.354941 -179.996936 -0.660154 2.867042 -0.016307 0.027717 0.112334 0.000000 0.000000 0.000000 0.000000 0.000000 0.000000 0.000000 2.430342 0.899245 -0.891673 65.260893 -0.433911 7.181826 179.331241 70.090464 179.968883 -4.307470 1.112984 -0.059294 0.080505 -0.459302 -0.000000 0.000000 0.000000 0.000000 0.000000 0.000000 0.000000 
-2.981590 15.440796 -1.015711 -8.508623 79.763989 24.144641 -8.222051 -2.485344 -0.639294 -8.436116 -4.284087 -75.264742 -0.873897 4.166545 55.392334 1.431215 4.539501 -11.262063 -0.104700 -0.000000 -26.777400 11.064714 -0.704484 -6.608662 13.543422 -10.319834 -33.938024 0.532670 -4.953225 65.507746 0.722877 9.137188 -9.548451 -0.390200 0.000000 -71.285600 -3.502991 1.911525 10.811767 -1.473330 2.303774 -1.026843 -5.061897 2.342948 -1.105453 10.222298 -7.571040 -7.276810 -1.189433 -0.063836 -0.388228 0.000000 0.000000 0.000000 6.224586 17.750081 2.317403 -73.110956 34.768102 11.898259 -179.842158 -85.484040 -179.997115 -0.616589 2.951446 -0.015688 0.024581 0.111139 0.000000 0.000000 0.000000 0.000000 0.000000 0.000000 0.000000 2.648481 1.082873 -0.881810 65.878758 -0.706126 7.349204 179.334969 70.209439 179.971407 -3.946949 1.272875 -0.060008 0.068720 -0.463599 0.000000 0.000000 0.000000 0.000000 0.000000 0.000000 0.000000 
-2.784718 15.387158 -0.984760 -9.441088 78.828528 22.739884 -8.282659 -2.588018 -0.888745 -8.191502 -3.498674 -74.851472 -0.689141 4.343400 57.743571 1.588391 5.308041 -12.343311 -0.255899 0.000000 -25.392400 11.208437 -0.706101 -6.433109 13.013638 -9.743462 -33.467225 0.196057 -4.988544 66.890409 0.739249 9.303249 -7.534380 -0.123800 0.000001 -72.556600 -3.789820 1.942628 10.822450 -1.560325 2.342477 -1.055375 -5.215351 2.385445 -1.174363 10.337066 -7.432286 -7.257112 -1.255478 -0.069360 -0.378785 0.000000 0.000000 0.000000 5.888797 17.685434 2.318981 -72.783234 33.989880 11.752181 -179.845795 -85.682031 -179.997348 -0.560346 3.093910 -0.014864 0.020621 0.109205 0.000000 0.000000 0.000000 0.000000 0.000000 0.000000 0.000000 2.939367 1.283754 -0.868366 66.572019 -0.994947 7.457211 179.340164 70.409335 179.974155 -3.554059 1.462377 -0.060024 0.055909 -0.468383 -0.000000 0.000000 0.000000 0.000000 0.000000 0.000000 0.000000 
-2.589850 15.338176 -0.951320 -10.133284 77.866049 21.602736 -8.340700 -2.672166 -1.147977 -8.048569 -2.638702 -74.355695 -0.550238 4.508782 59.848868 1.746759 6.056310 -13.603361 -0.456900 0.000001 -24.552700 11.346218 -0.698572 -6.230634 12.514243 -9.056964 -33.138200 -0.158203 -5.021667 68.345143 0.725533 9.382275 -5.280601 0.210800 -0.000001 -73.423200 -4.079536 1.965942 10.814593 -1.650489 2.372816 -1.087715 -5.383784 2.419457 -1.242694 10.452875 -7.274891 -7.228870 -1.336907 -0.076151 -0.367612 0.000000 0.000000 0.000000 5.499093 17.600140 2.319170 -72.403916 33.043458 11.581470 -179.852509 -85.974173 -179.997678 -0.480861 3.304638 -0.013634 0.015602 0.106435 0.000000 0.000000 0.000000 0.000000 0.000000 0.000000 0.000000 3.305629 1.490793 -0.853092 67.338076 -1.295263 7.497100 179.347761 70.704746 179.977090 -3.133158 1.687315 -0.059038 0.042216 -0.473630 0.000000 0.000000 0.000000 0.000000 0.000000 0.000000 0.000000 
-2.397351 15.294780 -0.915675 -10.656006 76.893666 20.662974 -8.395898 -2.737454 -1.410631 -7.983052 -1.724606 -73.784902 -0.452503 4.661180 61.695155 1.906572 6.781375 -15.007130 -0.708800 -0.000000 -24.279500 11.474667 -0.680834 -6.009151 12.064484 -8.289696 -32.952281 -0.519413 -5.050657 69.856265 0.675742 9.341471 -2.847676 0.596800 -0.000000 -73.756500 -4.357687 1.979122 10.790335 -1.740353 2.392124 -1.121675 -5.565239 2.442309 -1.306022 10.565083 -7.108268 -7.192649 -1.432809 -0.084119 -0.354884 0.000000 0.000000 0.000000 5.067198 17.492351 2.317149 -71.985961 31.921365 11.383915 -179.863299 -86.378131 -179.998149 -0.370364 3.590206 -0.011300 0.009391 0.102804 0.000000 0.000000 0.000000 0.000000 0.000000 0.000000 0.000000 3.744136 1.688674 -0.837309 68.171748 -1.600342 7.466693 179.358816 71.111515 179.980128 -2.694501 1.948759 -0.056856 0.027986 -0.479170 0.000000 0.000000 0.000000 0.000000 0.000000 0.000000 0.000000 
-2.207438 15.257588 -0.878250 -11.066133 75.927575 19.860380 -8.449015 -2.784435 -1.670682 -7.967823 -0.778980 -73.141935 -0.389723 4.798898 63.285359 2.067136 7.480020 -16.506608 -1.008700 -0.000000 -24.530600 11.590808 -0.652054 -5.778254 11.680742 -7.476131 -32.903930 -0.876034 -5.074617 71.410139 0.586563 9.137613 -0.329456 1.000300 0.000000 -73.440600 -4.608425 1.979756 10.754187 -1.825989 2.397674 -1.155209 -5.756882 2.451259 -1.362534 10.668095 -6.942461 -7.147197 -1.541662 -0.093159 -0.340156 0.000000 0.000000 0.000000 4.598422 17.349225 2.311503 -71.542427 30.637623 11.145593 -179.884980 -86.896546 -179.992522 -0.225253 3.951260 -0.007259 0.001988 0.098360 0.000000 0.000000 0.000000 0.000000 0.000000 0.000000 0.000000 4.248215 1.861505 -0.821046 69.064021 -1.905608 7.369778 179.374381 71.648648 179.983151 -2.253743 2.241286 -0.053172 0.013767 -0.484628 0.000000 0.000000 0.000000 0.000000 0.000000 0.000000 0.000000 
-2.020342 15.226922 -0.839530 -11.404076 74.984385 19.147673 -8.501629 -2.814151 -1.923029 -7.977288 0.173663 -72.424695 -0.354919 4.920163 64.633358 2.226589 8.148789 -18.045829 -1.348800 -0.000000 -25.211101 11.692562 -0.611771 -5.549176 11.374696 -6.655504 -32.982653 -1.218004 -5.094297 72.996169 0.457858 8.718040 2.162293 1.370600 -0.000000 -72.418400 -4.818358 1.965213 10.713475 -1.903696 2.386629 -1.185123 -5.954342 2.443548 -1.408407 10.756938 -6.788953 -7.093504 -1.660563 -0.103016 -0.323642 0.000000 0.000000 0.000000 4.108557 17.167026 2.301396 -71.090253 29.200091 10.861962 -179.899556 -87.537545 -179.999657 -0.043006 4.383812 -0.001015 -0.006492 0.093313 0.000000 0.000000 0.000000 0.000000 0.000000 0.000000 0.000000 4.805229 1.991761 -0.805532 70.002759 -2.203996 7.215152 179.395842 72.329730 179.985994 -1.832622 2.554286 -0.047889 0.000222 -0.489515 0.000000 0.000000 0.000000 0.000000 0.000000 0.000000 0.000000 
-1.836259 15.202819 -0.799985 -11.693674 74.080620 18.491687 -8.555966 -2.827735 -2.163438 -7.988972 1.108278 -71.627059 -0.340749 5.023349 65.760182 2.382000 8.784892 -19.564894 -1.717500 0.000000 -26.187300 11.778956 -0.559957 -5.333824 11.152943 -5.869469 -33.175698 -1.538294 -5.112067 74.607184 0.292176 8.025248 4.507567 1.646600 -0.000000 -70.711300 -4.977739 1.932722 10.676936 -1.970068 2.356081 -1.206978 -6.151054 2.416496 -1.436037 10.827561 -6.660268 -7.036150 -1.785547 -0.113293 -0.306609 0.000000 0.000000 0.000000 3.623693 16.958215 2.286971 -70.651232 27.602226 10.545157 -179.926992 -88.317429 179.999236 0.176940 4.879526 0.008536 -0.015990 0.087924 0.000000 0.000000 0.000000 0.000000 0.000000 0.000000 0.000000 5.399550 2.061346 -0.793251 70.970893 -2.486556 7.017040 179.424850 73.171364 179.988463 -1.457882 2.871809 -0.041704 -0.011901 -0.493184 0.000000 0.000000 0.000000 0.000000 0.000000 0.000000 0.000000 
-1.655264 15.185127 -0.760145 -11.955907 73.229858 17.864687 -8.614716 -2.825982 -2.387387 -7.982325 2.000936 -70.745454 -0.339991 5.107389 66.690076 2.529965 9.386729 -21.007164 -2.100300 -0.000000 -27.306600 11.849502 -0.497032 -5.142268 11.020194 -5.153592 -33.471040 -1.833327 -5.130663 76.236024 0.093885 7.006280 6.584304 1.765700 0.000000 -68.401100 -5.076112 1.879598 10.651262 -2.021801 2.303260 -1.219495 -6.341591 2.367392 -1.447570 10.875417 -6.564564 -6.973555 -1.912977 -0.123735 -0.288337 0.000000 0.000000 0.000000 3.146113 16.701884 2.267163 -70.238840 25.888617 10.172447 -179.960591 -89.211448 179.997879 0.429924 5.422843 0.021786 -0.026170 0.082534 0.000000 0.000000 0.000000 0.000000 0.000000 0.000000 0.000000 6.012572 2.058613 -0.782607 71.950219 -2.753310 6.792301 179.461981 74.182266 179.990360 -1.158592 3.172609 -0.035618 -0.021777 -0.494978 0.000000 0.000000 0.000000 0.000000 0.000000 0.000000 0.000000 
-1.477350 15.173448 -0.720439 -12.203947 72.444475 17.247796 -8.680294 -2.809701 -2.591302 -7.942391 2.830186 -69.777771 -0.346165 5.171765 67.447948 2.667076 9.954079 -22.324256 -2.481600 -0.000001 -28.427300 11.904550 -0.423594 -4.983120 10.976952 -4.538827 -33.858847 -2.103069 -5.153329 77.876171 -0.132333 5.624507 8.284796 1.679999 0.000000 -65.631800 -5.107730 1.803440 10.642350 -2.056372 2.225794 -1.220997 -6.519507 2.293994 -1.442455 10.898026 -6.508687 -6.907055 -2.038567 -0.133993 -0.268983 0.000000 0.000000 0.000000 2.689297 16.392607 2.241980 -69.869011 24.088651 9.737260 -0.000041 -89.798534 -0.003722 0.711255 5.995069 0.039237 -0.036729 0.077545 0.000000 0.000000 0.000000 0.000000 0.000000 0.000000 0.000000 6.623613 1.974650 -0.773157 72.920853 -3.003555 6.559340 179.507600 75.365515 179.991503 -0.965113 3.433690 -0.031332 -0.028678 -0.494295 0.000000 0.000000 0.000000 0.000000 0.000000 0.000000 0.000000 
